<?xml version="1.0" encoding="UTF-8"?>
<!-- Generated by Pixelmator Pro 3.3.12 -->
<svg width="437" height="428" viewBox="0 0 437 428" xmlns="http://www.w3.org/2000/svg">
    <path id="Path" fill="#0f0d36" stroke="#0f0d36" stroke-width="0.333333" d="M 122.639999 28 C 149.546661 12.613342 179.933319 3.093323 210.920013 1.373352 C 244.920013 -0.119995 278.82666 7.426636 310.359985 19.773315 C 328.23999 26.773315 344.680023 37.080017 359.506683 49.213318 C 382.333344 68.986664 403.080017 92.066681 415.65332 119.800018 C 426.52002 143.480011 430.946655 169.466675 434.119995 195.133331 C 440.720032 249.853363 429.546692 307.34668 399.23999 353.76001 C 385.146637 377.893372 364.17334 396.746643 344.146637 415.799988 C 342.880005 415.746643 340.333344 415.65332 339.06665 415.600037 C 339.466675 413.720032 340.359985 412.159973 341.746674 410.893372 C 364.213348 389.58667 385.079987 366.039978 400.106628 338.799988 C 411.58667 318.693329 419.613342 296.626678 423.52002 273.800018 C 427.893372 248.253326 426.919983 222.079987 423.679993 196.466675 C 419.506653 166.146667 412.946655 134.906647 395.34668 109.266663 C 376.959991 81.746674 354.359985 56.679993 327.23999 37.533325 C 303.573334 21.06665 275.65332 10.706665 246.959991 7.866699 C 233.306671 7.013306 219.639984 6.880005 205.986664 7.786682 C 175.880005 8.866699 146.679993 18.453308 119.773331 31.546692 C 116.013321 33.746643 110.293335 33.853333 108.426682 38.359985 C 106.773331 39.039978 105.106674 39.706665 103.400009 40.280029 L 103.186661 39.573364 C 103.706665 38.986694 104.733337 37.82666 105.23999 37.253357 C 111.440002 34.973328 116.773331 30.960022 122.639999 28 Z"/>
    <path id="path1" fill="#f56a2f" stroke="#f56a2f" stroke-width="0.333333" d="M 119.773331 31.546692 C 146.679993 18.453308 175.880005 8.866699 205.986664 7.786682 C 200.733337 9.746643 195.106659 10.293335 189.720001 11.746643 C 174.320007 15.906677 158.920013 20.880005 145.320007 29.386658 C 127.479996 40.400024 109.973328 52.186646 94.386658 66.266663 C 73.933334 85.253326 57.159988 107.76001 41.546677 130.800018 C 25.773331 158.17334 15.906662 189.746674 17.293335 221.546661 C 18.759995 236.17334 20.893326 250.946655 25.693329 264.866669 C 17.813339 265.439972 9.746658 265.640015 2.026665 267.213348 C 1.826668 267.58667 1.426666 268.359985 1.226662 268.733307 L 0.68 269.706665 C 1.079994 241.786652 -1.053337 213.440002 5.119995 185.946686 C 7.839996 174.346649 11.066666 162.813324 15.893326 151.893341 C 25.053329 129.293335 36.639999 107.693329 50.133347 87.386658 C 56.919998 77.546661 64.573318 68.279999 73.280014 60.093323 C 82.066666 52 92.76001 46.23999 102.226669 39.17334 L 103.186661 39.573364 L 103.400009 40.280029 C 105.106674 39.706665 106.773331 39.039978 108.426682 38.359985 C 110.293335 33.853333 116.013321 33.746643 119.773331 31.546692 Z"/>
    <path id="path2" fill="#f56a2f" stroke="#f56a2f" stroke-width="0.333333" d="M 138.373322 42.080017 C 162.346649 31.146667 188.466675 23.986694 214.973328 24.52002 C 242.626678 23.853333 270.693329 29.426636 295.17334 42.559998 C 312.746674 51.93335 329.053345 63.719971 343.600006 77.320007 C 375.76001 109.720001 397.746643 153.533325 399.213318 199.613342 C 358.946655 199.733337 318.666656 199.693329 278.399994 199.693329 C 278.133331 187.906647 278.279999 176.133331 278.119995 164.346649 C 266.426666 169.600006 255 176.333344 242.133331 178.213348 C 229.560028 178.626678 216.946686 178.453339 204.360016 178.333344 C 199.040009 178.573334 195.453339 173.013336 195.546661 168.146667 C 195.253326 157.893341 195.23999 147.600006 195.706665 137.346649 C 195.519989 132.333344 199.986664 128.813324 204.573334 128.146667 C 211.106659 127.266663 217.720001 127.866669 224.293335 127.706665 C 231.399994 127.866669 238.666656 127.013336 245.640015 128.866669 C 256.76001 131.773346 267.186676 136.733337 278.133331 140.199982 C 278.17334 121.82666 278.226685 103.440002 278.013336 85.066681 C 264.466675 94.160004 249.186676 103.093353 232.306671 102.386658 C 219.893341 102.426666 207.480011 102.160004 195.066681 102.213348 C 186.639984 102.253326 178.360016 106.666656 173.82666 113.786652 C 168.093353 122.853333 165.693329 133.76001 166.333344 144.41333 C 166.973328 157.706665 164.746674 171.426666 168.920013 184.333344 C 170.613342 190.186676 174.82666 194.733337 178.293335 199.58667 C 140.893341 199.666656 103.506668 199.706665 66.106674 199.573334 C 65.82666 214.866669 66.119995 230.17334 66.080002 245.466675 C 66.080002 260.560028 66.053329 275.666656 66.186661 290.76001 C 65.893326 298.199982 66.106674 305.666656 65.746658 313.106659 C 60.17334 304.319977 57.613342 294.06665 53.559998 284.560028 C 42.373337 258.253326 36.333328 229.279999 39.453323 200.679993 C 41.666672 183.040009 43.146667 165.160004 48.266663 148.053314 C 55.933334 121.613342 70.786667 97.573334 89.773331 77.76001 C 103.626663 63.06665 120.119995 50.76001 138.373322 42.080017 Z"/>
    <path id="path3" fill="#0f0d36" stroke="#0f0d36" stroke-width="0.333333" d="M 184.559998 48.573364 C 186.973328 46.93335 189.839996 44.960022 192.866669 46.359985 C 195.199982 48.093323 194.053314 50.960022 192.41333 52.706665 C 189.693329 53.053345 186.959991 52.773315 184.23999 52.986694 C 159.293335 57.82666 135.160004 68.466675 115.893326 85.23999 C 102.41333 97.066681 90.440002 110.653351 80.639999 125.679993 C 72.466675 138.800018 66.053329 152.959991 61.080002 167.573334 C 59.653336 171.58667 58.626663 175.906647 55.746658 179.17334 C 58.506668 164.693329 64.320007 150.946686 70.293335 137.519989 C 78.426682 119.58667 90.506668 103.653351 104.58667 89.973328 C 126.919998 69.559998 154.293335 53.133301 184.559998 48.573364 Z"/>
    <path id="path4" fill="#fefefd" stroke="#fefefd" stroke-width="0.333333" d="M 232.306671 102.386658 C 249.186676 103.093353 264.466675 94.160004 278.013336 85.066681 C 278.226685 103.440002 278.17334 121.82666 278.133331 140.199982 C 267.186676 136.733337 256.76001 131.773346 245.640015 128.866669 C 238.666656 127.013336 231.399994 127.866669 224.293335 127.706665 C 217.720001 127.866669 211.106659 127.266663 204.573334 128.146667 C 199.986664 128.813324 195.519989 132.333344 195.706665 137.346649 C 195.23999 147.600006 195.253326 157.893341 195.546661 168.146667 C 195.453339 173.013336 199.040009 178.573334 204.360016 178.333344 C 216.946686 178.453339 229.560028 178.626678 242.133331 178.213348 C 255 176.333344 266.426666 169.600006 278.119995 164.346649 C 278.279999 176.133331 278.133331 187.906647 278.399994 199.693329 C 245.026642 199.706665 211.653351 199.839996 178.293335 199.58667 C 174.82666 194.733337 170.613342 190.186676 168.920013 184.333344 C 164.746674 171.426666 166.973328 157.706665 166.333344 144.41333 C 165.693329 133.76001 168.093353 122.853333 173.82666 113.786652 C 178.360016 106.666656 186.639984 102.253326 195.066681 102.213348 C 207.480011 102.160004 219.893341 102.426666 232.306671 102.386658 Z"/>
    <path id="path5" fill="#0f0d36" stroke="#0f0d36" stroke-width="0.333333" d="M 66.106674 199.573334 C 103.506668 199.706665 140.893341 199.666656 178.293335 199.58667 C 211.653351 199.839996 245.026642 199.706665 278.399994 199.693329 C 318.666656 199.693329 358.946655 199.733337 399.213318 199.613342 L 399.213318 200.226654 C 399.399963 215.506683 399.093323 230.800018 399.440002 246.079987 C 394.973328 246.040009 390.506683 246.013336 386.053345 246.013336 C 386.106659 268.906647 385.853363 291.813324 386.186676 314.720001 C 385.906647 315.06665 385.34668 315.746674 385.079987 316.093353 C 384.866669 315.839996 384.466675 315.319977 384.266693 315.06665 C 383.839996 291.893341 384.386688 268.706665 383.959991 245.533325 C 378.186676 245.013336 372.399994 244.973358 366.626678 245.053345 C 366.706665 252.306671 366.733307 259.560028 366.720001 266.813324 C 374.786652 268.23999 379.506683 277.733307 376.013336 285.06665 C 374.386688 288.973358 370.613312 291.186676 366.773315 292.493317 C 366.65332 299.880005 366.853363 307.279999 366.706665 314.666656 C 366.666656 315.093353 366.58667 315.93335 366.546661 316.359985 C 359.226685 330.093323 346.906647 340.320007 334.58667 349.453308 C 299.399994 374.466675 255.466675 387.679993 212.279999 384 C 178.133331 381.973328 144.040009 369.386658 118.679993 346.053345 C 110.506668 339.053345 104.146667 330.320007 96.719986 322.58667 C 96.893326 321.560028 97.080002 320.52002 97.266663 319.506683 C 96.386658 317.973358 95.520004 316.439972 94.666672 314.906647 C 94.933334 307.253326 94.893326 299.58667 94.613342 291.946655 C 88.786667 289.906647 85.159988 283.786652 86.23999 277.693329 C 86.506668 272.506683 91.093338 269.506683 94.880005 266.800018 C 95.546677 259.693329 95.013321 252.533325 95.226669 245.399994 C 89.613342 245.453339 84.013321 245.453339 78.41333 245.506683 C 78.426682 268.560028 78.213333 291.626678 78.493332 314.693329 C 77.919998 314.706665 76.773331 314.746674 76.199997 314.76001 C 75.906662 291.786652 76.293335 268.813324 76.013321 245.839996 C 72.706665 245.706665 69.386658 245.573334 66.080002 245.466675 C 66.119995 230.17334 65.82666 214.866669 66.106674 199.573334 Z"/>
    <path id="path6" fill="#fefefd" stroke="#fefefd" stroke-width="0.333333" d="M 399.213318 200.226654 C 400.65332 205.946686 399.853333 211.880005 399.82666 217.706665 C 399.693298 227.279999 399.666687 236.880005 400.52002 246.426666 C 399.76001 248.333344 398.786682 250.226685 398.733337 252.319977 C 398.399963 273.053345 399.06665 293.800018 398.386658 314.52002 C 397.693298 314.560028 396.293335 314.626678 395.58667 314.666656 C 392.453308 314.706665 389.319977 314.666656 386.186676 314.720001 C 385.853363 291.813324 386.106659 268.906647 386.053345 246.013336 C 390.506683 246.013336 394.973328 246.040009 399.440002 246.079987 C 399.093323 230.800018 399.399963 215.506683 399.213318 200.226654 Z"/>
    <path id="path7" fill="#fefefd" stroke="#fefefd" stroke-width="0.333333" d="M 114.266663 245.23999 C 119.719986 245.133331 125.186661 245.093353 130.639999 245.160004 C 130.599991 253.52002 131.226669 262 130.426682 270.306671 C 126.360001 272.146637 122.199997 275.306671 122.440002 280.293335 C 121.533325 285.959991 125.440002 291.453339 131.360001 291.626678 C 131.426682 299.52002 131.493332 307.439972 130.666672 315.306671 C 125.133347 314.41333 119.479996 314.213348 113.906662 314.839996 C 114.813339 291.65332 114.226669 268.439972 114.266663 245.23999 Z"/>
    <path id="path8" fill="#fefefd" stroke="#fefefd" stroke-width="0.333333" d="M 66.080002 245.466675 C 69.386658 245.573334 72.706665 245.706665 76.013321 245.839996 C 76.293335 268.813324 75.906662 291.786652 76.199997 314.76001 C 73.146667 314.160004 70.066666 313.666656 66.973328 313.306671 C 66.733337 305.773315 67.346664 298.23999 66.186661 290.76001 C 66.053329 275.666656 66.080002 260.560028 66.080002 245.466675 Z"/>
    <path id="path9" fill="#fefefd" stroke="#fefefd" stroke-width="0.333333" d="M 78.41333 245.506683 C 84.013321 245.453339 89.613342 245.453339 95.226669 245.399994 C 95.013321 252.533325 95.546677 259.693329 94.880005 266.800018 C 91.093338 269.506683 86.506668 272.506683 86.23999 277.693329 C 85.159988 283.786652 88.786667 289.906647 94.613342 291.946655 C 94.893326 299.58667 94.933334 307.253326 94.666672 314.906647 C 89.280014 314.52002 83.880005 314.493317 78.493332 314.693329 C 78.213333 291.626678 78.426682 268.560028 78.41333 245.506683 Z"/>
    <path id="path10" fill="#fefefd" stroke="#fefefd" stroke-width="0.333333" d="M 97.866653 245.426666 C 102.506668 245.34668 107.146667 245.186676 111.786667 245.06665 C 112.133347 256.386688 112 267.720001 111.786667 279.053345 C 112.426682 290.920013 112.360001 302.839996 111.41333 314.693329 L 110.186661 314.666656 C 106.066666 314.533325 101.960007 314.706665 97.853333 314.959991 C 97.400009 307.600006 97.733337 300.226685 97.466675 292.866669 C 100.933334 291.853363 104.933334 291.733307 107.719986 289.17334 C 112.013321 285.58667 112.266663 279.079987 110.506668 274.146637 C 108.746658 269.093353 103.053329 266.65332 98 267.146637 C 97.440002 259.920013 97.746658 252.666656 97.866653 245.426666 Z"/>
    <path id="path11" fill="#fefefd" stroke="#fefefd" stroke-width="0.333333" d="M 133.23999 245.213348 C 138.786652 245.920013 144.373322 246.386688 149.959991 246.76001 C 149.506683 269.65332 150.559998 292.613312 148.519989 315.439972 C 143.466675 314.013336 138.133331 314.333344 133.039993 315.293335 C 133.333328 307.41333 133.613342 299.546661 133.653336 291.680023 C 137.279999 290.506683 140.746674 287.946655 141.626678 284.040009 C 142.973328 279.666656 140.666656 275.319977 137.933319 272.040009 C 136.360016 271.453339 134.800003 270.866669 133.23999 270.279999 C 133.293335 261.920013 133.080002 253.573334 133.23999 245.213348 Z"/>
    <path id="path12" fill="#fefefd" stroke="#fefefd" stroke-width="0.333333" d="M 176.839996 246.34668 C 183.559998 245.293335 190.399994 244.76001 197.160004 245.813324 C 197.253326 252.786652 197.146667 259.76001 197.226654 266.733307 C 192.386658 266.82666 186.613342 267.17334 183.76001 271.720001 C 179.639984 277.053345 180.920013 285.133331 185.813324 289.506683 C 188.506683 291.746674 192.160004 291.906647 195.466675 292.306671 C 195.386658 299.800018 195.746674 307.306671 195.199982 314.786652 C 189.106659 314.453339 182.946686 314.213348 176.880005 315.040009 C 176.41333 292.146637 177.133331 269.23999 176.839996 246.34668 Z"/>
    <path id="path13" fill="#fefefd" stroke="#fefefd" stroke-width="0.333333" d="M 199.453339 246.279999 C 205.23999 246.866669 211.053314 247.319977 216.866669 247.666656 C 216.800018 270.266693 217.040009 292.893341 216.720001 315.493317 C 210.626678 314.253326 204.293335 314.146637 198.186676 315.319977 C 197.880005 307.453339 198.053314 299.573334 198.186676 291.706665 C 205.786652 290.23999 209.679993 280.76001 206.213348 274.106659 C 205.079987 271.053345 202.386658 269.213348 199.639984 267.76001 C 199.533325 260.600006 199.733337 253.439972 199.453339 246.279999 Z"/>
    <path id="path14" fill="#fefefd" stroke="#fefefd" stroke-width="0.333333" d="M 231.839996 246.17334 C 239.079987 244.880005 246.439972 244.746674 253.76001 244.893341 C 253.720001 252.493317 253.65332 260.093353 253.906647 267.680023 C 247.333344 265.186676 239.199982 268.213348 236.866669 275.06665 C 233.23999 282.906647 239.693329 293.013336 248.533325 292.186676 C 248.34668 299.986664 249 307.839996 247.986664 315.613312 C 243 314.226685 237.600006 314.053345 232.626678 315.573334 C 231.626678 309.213348 232.213348 302.746674 232.053345 296.34668 C 232.186676 279.613312 232.119995 262.893341 231.839996 246.17334 Z"/>
    <path id="path15" fill="#fefefd" stroke="#fefefd" stroke-width="0.333333" d="M 256.093353 245.06665 C 261.640015 245.439972 267.17334 246.079987 272.720001 246.533325 C 272.493317 269.226685 272.839996 291.93335 272.626678 314.640015 C 265.613312 314.626678 258.600006 314.333344 251.600006 314.82666 C 251.160004 307.226685 251.466675 299.600006 251.373322 291.986664 C 257.266693 290.640015 261.680023 285.133331 261.266693 279.013336 C 261.893341 274.733307 258.493317 271.693329 256.306671 268.506683 C 255.93335 260.706665 256.293335 252.880005 256.093353 245.06665 Z"/>
    <path id="path16" fill="#fefefd" stroke="#fefefd" stroke-width="0.333333" d="M 341.359985 249.573334 C 340.613312 247.640015 342.626678 246.453339 344.199982 246.65332 C 350.733307 246.160004 357.213348 245.133331 363.773315 244.973358 C 363.82666 252.359985 363.853363 259.733307 363.693329 267.119995 C 354.533325 266.720001 348.319977 277.693329 352.786652 285.506683 C 354.426666 290.199982 359.453339 291.666656 363.813324 292.600006 C 363.493317 300.199982 364.573334 307.93335 363.17334 315.453339 C 355.959991 314.373322 348.613312 314.266693 341.399994 315.319977 C 341.319977 293.41333 341.399994 271.493317 341.359985 249.573334 Z"/>
    <path id="path17" fill="#fefefd" stroke="#fefefd" stroke-width="0.333333" d="M 366.626678 245.053345 C 372.399994 244.973358 378.186676 245.013336 383.959991 245.533325 C 384.386688 268.706665 383.839996 291.893341 384.266693 315.06665 C 378.439972 314.23999 372.560028 314.880005 366.706665 314.666656 C 366.853363 307.279999 366.65332 299.880005 366.773315 292.493317 C 370.613312 291.186676 374.386688 288.973358 376.013336 285.06665 C 379.506683 277.733307 374.786652 268.23999 366.720001 266.813324 C 366.733307 259.560028 366.706665 252.306671 366.626678 245.053345 Z"/>
    <path id="path18" fill="#fefefd" stroke="#fefefd" stroke-width="0.333333" d="M 152.093353 247.160004 C 155.106659 247.226685 158.106659 247.333344 161.119995 247.47998 C 161.013336 270.106659 161.639984 292.746674 161.026672 315.359985 C 157.639984 314.533325 154.133331 314.600006 150.666656 314.466675 C 151.626678 292.040009 151.600006 269.58667 152.093353 247.160004 Z"/>
    <path id="path19" fill="#fefefd" stroke="#fefefd" stroke-width="0.333333" d="M 163.613342 247.399994 C 167.213348 247.199982 170.813324 246.866669 174.399994 246.506683 C 174.653351 269.23999 174.426666 291.986664 174.306671 314.720001 C 170.813324 314.640015 167.320007 314.626678 163.839996 314.626678 C 163.653351 292.226685 163.706665 269.813324 163.613342 247.399994 Z"/>
    <path id="path20" fill="#fefefd" stroke="#fefefd" stroke-width="0.333333" d="M 219.133331 247.693329 C 222.58667 247.453339 226.026642 247.146637 229.466675 246.706665 C 229.693329 265.013336 229.680023 283.319977 229.786652 301.626678 C 229.839996 306.34668 229.973358 311.093353 229.359985 315.800018 C 226.160004 314.213348 222.58667 314.493317 219.253326 315.453339 C 218.866669 292.866669 219.17334 270.266693 219.133331 247.693329 Z"/>
    <path id="path21" fill="#fefefd" stroke="#fefefd" stroke-width="0.333333" d="M 274.880005 314.546661 C 275.186676 291.920013 274.266693 269.226685 275.333344 246.626678 C 278.533325 247.119995 281.746674 247.506683 284.959991 247.946655 C 284.906647 270.186676 285.106659 292.439972 284.880005 314.680023 C 281.546661 314.640015 278.213348 314.58667 274.880005 314.546661 Z"/>
    <path id="path22" fill="#fefefd" stroke="#fefefd" stroke-width="0.333333" d="M 287.133331 247.866669 C 292.279999 248.17334 297.426666 248.58667 302.600006 248.533325 C 302.439972 255.666656 302.786652 262.813324 302.41333 269.93335 C 298.733307 272.293335 294.439972 275.253326 295.053345 280.306671 C 294.279999 285.813324 297.986664 290.76001 303.453339 291.693329 C 303.813324 299.600006 303.533325 307.560028 301.853363 315.319977 C 297.279999 314.23999 292.560028 314.58667 287.906647 314.693329 L 287.266693 314.693329 C 286.906647 292.426666 287.213348 270.146637 287.133331 247.866669 Z"/>
    <path id="path23" fill="#fefefd" stroke="#fefefd" stroke-width="0.333333" d="M 305.306671 248.680023 C 312.373322 248.93335 319.399994 248.06665 326.453339 247.880005 C 326.293335 270.34668 326.733307 292.813324 326.41333 315.279999 C 319.253326 314.47998 311.93335 313.973358 304.82666 315.41333 C 305.466675 307.573334 306.626678 299.76001 306.040009 291.853363 C 314.720001 291.946655 319.133331 280.773315 314.226685 274.253326 C 312.279999 271.213348 308.613312 270.506683 305.359985 269.773315 C 305.293335 262.733307 305.293335 255.706665 305.306671 248.680023 Z"/>
    <path id="path24" fill="#fefefd" stroke="#fefefd" stroke-width="0.333333" d="M 328.600006 247.959991 C 332.026642 247.680023 335.466675 247.47998 338.906647 247.399994 C 338.813324 270.026642 339.226685 292.666656 338.786652 315.293335 C 335.506683 314.640015 332.17334 314.773315 328.893341 315.266693 C 328.426666 292.839996 328.800018 270.399994 328.600006 247.959991 Z"/>
    <path id="path25" fill="#0f0d36" stroke="#0f0d36" stroke-width="0.333333" d="M 2.026665 267.213348 C 9.746658 265.640015 17.813339 265.439972 25.693329 264.866669 C 29 285.106659 34.400009 305.160004 43.706665 323.506653 C 59.133347 352.733337 80.426682 379.559998 108.253342 397.853333 C 113.706665 401.47998 119.919998 404.746643 123.360001 410.573303 C 125.813339 415.06665 124.453323 420.266663 121.986679 424.426697 C 118.559998 426 114.533325 427.226685 110.893326 425.533325 C 98.693344 420.573303 88.373337 412.106628 78.306656 403.799988 C 57.106674 386.213318 38.960007 364.946655 25.333328 340.973328 C 12.373337 318.920013 4.533333 294.053345 1.226662 268.733307 C 1.426666 268.359985 1.826668 267.58667 2.026665 267.213348 Z"/>
    <path id="path26" fill="#f56a2f" stroke="#f56a2f" stroke-width="0.333333" d="M 76.199997 314.76001 C 76.773331 314.746674 77.919998 314.706665 78.493332 314.693329 C 83.880005 314.493317 89.280014 314.52002 94.666672 314.906647 C 95.520004 316.439972 96.386658 317.973358 97.266663 319.506683 C 97.080002 320.52002 96.893326 321.560028 96.719986 322.58667 C 104.146667 330.320007 110.506668 339.053345 118.679993 346.053345 C 144.040009 369.386658 178.133331 381.973328 212.279999 384 C 255.466675 387.679993 299.399994 374.466675 334.58667 349.453308 C 346.906647 340.320007 359.226685 330.093323 366.546661 316.359985 C 366.58667 315.93335 366.666656 315.093353 366.706665 314.666656 C 372.560028 314.880005 378.439972 314.23999 384.266693 315.06665 C 384.466675 315.319977 384.866669 315.839996 385.079987 316.093353 C 385.34668 315.746674 385.906647 315.06665 386.186676 314.720001 C 389.319977 314.666656 392.453308 314.706665 395.58667 314.666656 C 393.080017 315.47998 390.426666 315.546661 387.82666 315.47998 C 385.800018 317.920013 383.306671 319.973358 381.680023 322.733307 C 373.93335 335.906677 364.906647 348.47998 353.706665 358.960022 C 322.720001 388.159973 281.333344 405.186707 239.133331 409.013367 C 210.066681 412.47998 180.360016 407.279968 153.253326 396.600037 C 115.093338 382.359985 84.026672 351.893372 66.266663 315.533325 C 69.573318 315.199982 72.880005 314.866669 76.199997 314.76001 Z"/>
    <path id="path27" fill="#f56a2f" stroke="#f56a2f" stroke-width="0.333333" d="M 150.666656 314.466675 C 154.133331 314.600006 157.639984 314.533325 161.026672 315.359985 C 161.800018 316 162.573334 316.666656 163.346649 317.34668 C 163.466675 316.666656 163.720001 315.306671 163.839996 314.626678 C 167.320007 314.626678 170.813324 314.640015 174.306671 314.720001 C 174.533325 316.119995 174.800018 317.533325 175.053314 318.946655 C 175.519989 317.973358 176.426666 316.026642 176.880005 315.040009 C 182.946686 314.213348 189.106659 314.453339 195.199982 314.786652 C 195.426666 315.34668 195.866669 316.453339 196.093353 317.013336 C 196.613342 316.58667 197.666656 315.746674 198.186676 315.319977 C 204.293335 314.146637 210.626678 314.253326 216.720001 315.493317 C 217.040009 315.546661 217.693329 315.666656 218.013336 315.733307 C 218.320007 315.65332 218.946686 315.52002 219.253326 315.453339 C 222.58667 314.493317 226.160004 314.213348 229.359985 315.800018 L 230.986664 316.58667 L 232.626678 315.573334 C 237.600006 314.053345 243 314.226685 247.986664 315.613312 C 248.706665 316 250.119995 316.786652 250.839996 317.186676 C 251.026642 316.600006 251.41333 315.41333 251.600006 314.82666 C 258.600006 314.333344 265.613312 314.626678 272.626678 314.640015 C 273.079987 315.773315 273.560028 316.906647 274.040009 318.040009 C 274.253326 317.17334 274.666656 315.426666 274.880005 314.546661 C 278.213348 314.58667 281.546661 314.640015 284.880005 314.680023 C 285.666656 314.680023 286.466675 314.680023 287.266693 314.693329 L 287.906647 314.693329 C 292.560028 314.58667 297.279999 314.23999 301.853363 315.319977 C 302.266693 315.399994 303.106659 315.573334 303.52002 315.65332 C 303.839996 315.58667 304.506683 315.47998 304.82666 315.41333 C 311.93335 313.973358 319.253326 314.47998 326.41333 315.279999 C 327.026642 315.279999 328.266693 315.266693 328.893341 315.266693 C 332.17334 314.773315 335.506683 314.640015 338.786652 315.293335 L 340.06665 315.493317 L 341.399994 315.319977 C 348.613312 314.266693 355.959991 314.373322 363.17334 315.453339 C 362.906647 316.186676 362.386688 317.680023 362.133331 318.41333 C 351.986664 329.053345 342.213348 340.266663 330.013336 348.640015 C 310.23999 363.893372 285.76001 371.453308 261.47998 375.82666 C 242.306671 379.34668 222.666656 379.853333 203.306671 377.76001 C 178.880005 374.573303 155.813324 364.23999 135.666656 350.293335 C 121.466675 340.453308 108.17334 328.880005 97.853333 314.959991 C 101.960007 314.706665 106.066666 314.533325 110.186661 314.666656 C 110.706665 315.34668 111.76001 316.693329 112.280014 317.373322 C 112.693344 316.746674 113.506668 315.47998 113.906662 314.839996 C 119.479996 314.213348 125.133347 314.41333 130.666672 315.306671 C 130.960007 315.359985 131.573318 315.453339 131.880005 315.493317 C 132.17334 315.439972 132.746658 315.34668 133.039993 315.293335 C 138.133331 314.333344 143.466675 314.013336 148.519989 315.439972 C 149.040009 315.640015 150.079987 316.026642 150.600006 316.226685 C 150.613342 315.786652 150.653351 314.906647 150.666656 314.466675 Z"/>
</svg>
